<svg xmlns="http://www.w3.org/2000/svg" style="display:none">

  <!-- A ARVORE-MAE: copa verde, tronco de terra, raizes — e a Nyeleti dourada na copa -->
  <symbol id="arvore-mae" viewBox="0 0 64 64">
    <path d="M32 5c-9 0-15.5 5.5-17.5 12C9 18.5 5 23 5 28.5 5 35 10.5 40 17 40h30c6.5 0 12-5 12-11.5 0-5.5-4-10-9.5-11.5C47.5 10.5 41 5 32 5z" fill="#5F7F35"/>
    <path d="M32 15l2.4 9.1 9.1 2.4-9.1 2.4L32 38l-2.4-9.1-9.1-2.4 9.1-2.4z" fill="#D99530"/>
    <path d="M28.5 36h7v16h-7z" fill="#7A4A2B"/>
    <path d="M32 52v6M32 54c-4.5 0-8.5 1.5-12 3.5M32 54c4.5 0 8.5 1.5 12 3.5" stroke="#7A4A2B" stroke-width="2.5" stroke-linecap="round" fill="none"/>
  </symbol>

  <!-- O SOM ORIGINAL: a nota central e as ondas que se espalham -->
  <symbol id="som-original" viewBox="0 0 64 64">
    <path d="M32 26l2.2 8.3 8.3 2.2-8.3 2.2L32 47l-2.2-8.3-8.3-2.2 8.3-2.2z" fill="#D99530"/>
    <path d="M44.5 20.5a16 16 0 010 23M19.5 20.5a16 16 0 000 23" stroke="#D99530" stroke-width="3" fill="none" stroke-linecap="round"/>
    <path d="M51 14a26 26 0 010 36M13 14a26 26 0 000 36" stroke="#D99530" stroke-width="3" fill="none" stroke-linecap="round" opacity="0.5"/>
  </symbol>

  <!-- A PEDRA DE LUZ: a gema que arde, com raios -->
  <symbol id="pedra-de-luz" viewBox="0 0 64 64">
    <path d="M32 4v7M15 10l5 5M49 10l-5 5M32 53v7M15 54l5-5M49 54l-5-5" stroke="#D99530" stroke-width="2.5" stroke-linecap="round" fill="none"/>
    <path d="M19 26l7-9h12l7 9-13 19z" fill="#D99530"/>
    <path d="M26 17l6 9 6-9M19 26h26M32 45l-6.5-19M32 45l6.5-19" stroke="#F6F0E1" stroke-width="1.5" fill="none" opacity="0.55"/>
  </symbol>

  <!-- A FOGUEIRA: chama dourada, coracao de madrugada, lenhos de terra -->
  <symbol id="fogueira" viewBox="0 0 64 64">
    <path d="M32 6c1.5 8-7 11-7 19 0 4.5 2.5 8 4.5 10-4-1-8-4.5-9-9.5-1.5 3-2.5 6.5-2.5 10 0 10 6.5 16.5 14 16.5s14-6.5 14-16.5C46 16 35 13 32 6z" fill="#D99530"/>
    <path d="M32 26c1 5-4 7-4 12 0 4 1.7 7 4 8.5 2.3-1.5 4-4.5 4-8.5 0-5-5-7-4-12z" fill="#F6F0E1"/>
    <path d="M19 55l26-5M45 55l-26-5" stroke="#7A4A2B" stroke-width="4" stroke-linecap="round" fill="none"/>
  </symbol>

  <!-- NYELETI: a estrela de 4 pontas — a forma verdadeira dela (a do favicon) -->
  <symbol id="nyeleti" viewBox="0 0 64 64">
    <path d="M32 8l5 19 19 5-19 5-5 19-5-19-19-5 19-5z" fill="#D99530"/>
    <path d="M32 8l5 19 19 5-19 5-5 19-5-19-19-5 19-5z" fill="none" stroke="#F6F0E1" stroke-width="1" opacity="0.4"/>
  </symbol>

</svg>